<svg width="24" height="24" viewBox="0 0 24 24" fill="none" xmlns="http://www.w3.org/2000/svg">
    <defs>
        <linearGradient id="paint0_linear_4118_4" x1="0" y1="12" x2="24" y2="12" gradientUnits="userSpaceOnUse">
            <stop stop-color="#FC4A1A"/>
            <stop offset="1" stop-color="#F7B733"/>
        </linearGradient>
    </defs>
    <path d="M17.737 4.625a1.53 1.53 0 0 0-1.404-.953h-.043c-.47.022-.92.23-1.27.565-.217.217-.413.456-.587.717a12.285 12.285 0 0 0-7.826 0 5.332 5.332 0 0 0-.587-.717 1.62 1.62 0 0 0-1.27-.565h-.043a1.53 1.53 0 0 0-1.404.953c-1.326 3.022-1.217 6.043.304 8.87a14.86 14.86 0 0 0 5.217 4.782 1.58 1.58 0 0 0 .826.26 1.58 1.58 0 0 0 .826-.26 14.86 14.86 0 0 0 5.217-4.782c1.521-2.827 1.63-5.848.304-8.87zM10.13 13.108a1.63 1.63 0 0 1-1.63-1.63c0-.89.739-1.63 1.63-1.63s1.63.74 1.63 1.63c0 .89-.739 1.63-1.63 1.63zm3.74 0a1.63 1.63 0 0 1-1.63-1.63c0-.89.739-1.63 1.63-1.63s1.63.74 1.63 1.63c0 .89-.739 1.63-1.63 1.63z" fill="url(#paint0_linear_4118_4)"/>
</svg>