<svg width="24" height="24" viewBox="0 0 24 24" fill="none" xmlns="http://www.w3.org/2000/svg">
    <defs>
        <linearGradient id="paint0_linear_4118_4" x1="0" y1="12" x2="24" y2="12" gradientUnits="userSpaceOnUse">
            <stop stop-color="#FC4A1A"/>
            <stop offset="1" stop-color="#F7B733"/>
        </linearGradient>
    </defs>
    <path d="M16 2H8C4.691 2 2 4.691 2 8v8c0 3.309 2.691 6 6 6h8c3.309 0 6-2.691 6-6V8c0-3.309-2.691-6-6-6zm-8 12c-2.206 0-4-1.794-4-4s1.794-4 4-4 4 1.794 4 4-1.794 4-4 4zm8-8c-.552 0-1-.449-1-1s.448-1 1-1 1 .449 1 1-.448 1-1 1z" fill="url(#paint0_linear_4118_4)"/>
    <path d="M12 10c-1.103 0-2 .897-2 2s.897 2 2 2 2-.897 2-2-.897-2-2-2z" fill="url(#paint0_linear_4118_4)"/>
</svg>