<svg width="24" height="24" viewBox="0 0 24 24" fill="none" xmlns="http://www.w3.org/2000/svg">
    <defs>
        <linearGradient id="paint0_linear_4118_4" x1="0" y1="12" x2="24" y2="12" gradientUnits="userSpaceOnUse">
            <stop stop-color="#FC4A1A"/>
            <stop offset="1" stop-color="#F7B733"/>
        </linearGradient>
    </defs>
    <path d="M12.525.02c1.31-.02 2.61-.01 3.91-.02.08 1.53.63 3.09 1.75 4.17 1.12 1.11 2.7 1.62 4.24 1.79v4.03c-1.44-.05-2.89-.35-4.2-.97-.57-.26-1.1-.59-1.62-.93-.01 2.92.01 5.84-.02 8.75-.08 1.4-.54 2.79-1.35 3.94-1.31 1.92-3.58 2.8-5.92 2.44-1.5-.24-2.84-.95-3.96-1.98-1.22-1.12-1.93-2.56-2.09-4.19-.17-1.77-.01-3.54.02-5.31.01-1.02.23-2.02.69-2.95.86-1.7 2.41-2.73 4.25-3.16.25-.06.5-.09.75-.12.01-2.87.01-5.74.03-8.61.47-.04.93-.06 1.4-.06z" fill="url(#paint0_linear_4118_4)"/>
</svg>